<svg xmlns="http://www.w3.org/2000/svg" xmlns:xlink="http://www.w3.org/1999/xlink" width="25cm" height="20cm" viewBox="62 27 500 397"><text style="fill:#000;text-anchor:start;font-family:sans-serif;font-style:normal;font-weight:400" x="62" y="179" font-size="22.578"><tspan x="62" y="179">A</tspan></text><text style="fill:#000;text-anchor:start;font-family:sans-serif;font-style:normal;font-weight:400" x="196" y="59" font-size="33.867"><tspan x="196" y="59">+</tspan></text><text style="fill:#000;text-anchor:start;font-family:sans-serif;font-style:normal;font-weight:400" x="361" y="187" font-size="33.867"><tspan x="361" y="187">*</tspan></text><text style="fill:#000;text-anchor:start;font-family:sans-serif;font-style:normal;font-weight:400" x="207" y="267" font-size="33.867"><tspan x="207" y="267">*</tspan></text><text style="fill:#000;text-anchor:start;font-family:sans-serif;font-style:normal;font-weight:400" x="457" y="281" font-size="33.867"><tspan x="457" y="281">+</tspan></text><text style="fill:#000;text-anchor:start;font-family:sans-serif;font-style:normal;font-weight:400" x="533" y="419" font-size="22.578"><tspan x="533" y="419">42</tspan></text><text style="fill:#000;text-anchor:start;font-family:sans-serif;font-style:normal;font-weight:400" x="362" y="419" font-size="22.578"><tspan x="362" y="419">D</tspan></text><text style="fill:#000;text-anchor:start;font-family:sans-serif;font-style:normal;font-weight:400" x="82" y="419" font-size="22.578"><tspan x="82" y="419">B</tspan></text><text style="fill:#000;text-anchor:start;font-family:sans-serif;font-style:normal;font-weight:400" x="273" y="419" font-size="22.578"><tspan x="273" y="419">C</tspan></text><g><line style="fill:none;fill-opacity:0;stroke-width:2;stroke:#000" x1="186.643" x2="101.75" y1="70.949" y2="143.715"/><polygon style="fill:#000" points="96.055 148.596 100.394 138.291 101.75 143.715 106.902 145.884"/><polygon style="fill:none;fill-opacity:0;stroke-width:2;stroke:#000" points="96.055 148.596 100.394 138.291 101.75 143.715 106.902 145.884"/></g><g><line style="fill:none;fill-opacity:0;stroke-width:2;stroke:#000" x1="235.705" x2="337.506" y1="69.404" y2="145.755"/><polygon style="fill:#000" points="343.506 150.255 332.506 148.255 337.506 145.755 338.506 140.255"/><polygon style="fill:none;fill-opacity:0;stroke-width:2;stroke:#000" points="343.506 150.255 332.506 148.255 337.506 145.755 338.506 140.255"/></g><g><line style="fill:none;fill-opacity:0;stroke-width:2;stroke:#000" x1="340" x2="252.19" y1="180" y2="230.837"/><polygon style="fill:#000" points="245.7 234.595 251.849 225.258 252.19 230.837 256.859 233.912"/><polygon style="fill:none;fill-opacity:0;stroke-width:2;stroke:#000" points="245.7 234.595 251.849 225.258 252.19 230.837 256.859 233.912"/></g><g><line style="fill:none;fill-opacity:0;stroke-width:2;stroke:#000" x1="392.772" x2="441.344" y1="192.772" y2="241.344"/><polygon style="fill:#000" points="446.647 246.647 436.041 243.112 441.344 241.344 443.112 236.041"/><polygon style="fill:none;fill-opacity:0;stroke-width:2;stroke:#000" points="446.647 246.647 436.041 243.112 441.344 241.344 443.112 236.041"/></g><g><line style="fill:none;fill-opacity:0;stroke-width:2;stroke:#000" x1="196.997" x2="116.05" y1="276.111" y2="378.259"/><polygon style="fill:#000" points="111.392 384.137 113.684 373.194 116.05 378.259 121.521 379.405"/><polygon style="fill:none;fill-opacity:0;stroke-width:2;stroke:#000" points="111.392 384.137 113.684 373.194 116.05 378.259 121.521 379.405"/></g><g><line style="fill:none;fill-opacity:0;stroke-width:2;stroke:#000" x1="228.422" x2="265.894" y1="280.662" y2="372.326"/><polygon style="fill:#000" points="268.732 379.268 260.32 371.904 265.894 372.326 269.576 368.119"/><polygon style="fill:none;fill-opacity:0;stroke-width:2;stroke:#000" points="268.732 379.268 260.32 371.904 265.894 372.326 269.576 368.119"/></g><g><line style="fill:none;fill-opacity:0;stroke-width:2;stroke:#000" x1="452.214" x2="394.445" y1="296.101" y2="376.977"/><polygon style="fill:#000" points="390.086 383.08 391.83 372.036 394.445 376.977 399.967 377.849"/><polygon style="fill:none;fill-opacity:0;stroke-width:2;stroke:#000" points="390.086 383.08 391.83 372.036 394.445 376.977 399.967 377.849"/></g><g><line style="fill:none;fill-opacity:0;stroke-width:2;stroke:#000" x1="485.511" x2="526.844" y1="298.151" y2="374.292"/><polygon style="fill:#000" points="530.422 380.883 521.257 374.48 526.844 374.292 530.046 369.709"/><polygon style="fill:none;fill-opacity:0;stroke-width:2;stroke:#000" points="530.422 380.883 521.257 374.48 526.844 374.292 530.046 369.709"/></g></svg>